<?xml version="1.0" encoding="UTF-8"?>
<svg version="1.1" xmlns="http://www.w3.org/2000/svg" width="105" height="97">
<path d="M0 0 C34.65 0 69.3 0 105 0 C105 32.01 105 64.02 105 97 C70.35 97 35.7 97 0 97 C0 64.99 0 32.98 0 0 Z " fill="#FDFEFD" transform="translate(0,0)"/>
<path d="M0 0 C0.8306749 -0.00428513 1.66134979 -0.00857025 2.51719666 -0.01298523 C4.26967458 -0.01871824 6.02217629 -0.01923638 7.7746582 -0.01489258 C10.45890639 -0.01172575 13.14205934 -0.03522738 15.82617188 -0.06054688 C17.52994653 -0.06281926 19.23372414 -0.06352365 20.9375 -0.0625 C21.74067154 -0.07170975 22.54384308 -0.08091949 23.37135315 -0.09040833 C28.87396933 -0.04456523 28.87396933 -0.04456523 31.43920898 1.63208008 C32.40234375 3.30078125 32.40234375 3.30078125 32.27734375 6.36328125 C31.40234375 9.30078125 31.40234375 9.30078125 28.40234375 11.30078125 C26.5012207 11.61962891 26.5012207 11.61962891 24.390625 11.71484375 C23.25463867 11.77285156 23.25463867 11.77285156 22.09570312 11.83203125 C21.31001953 11.86296875 20.52433594 11.89390625 19.71484375 11.92578125 C18.91755859 11.96445313 18.12027344 12.003125 17.29882812 12.04296875 C15.333709 12.13710619 13.36805835 12.22002757 11.40234375 12.30078125 C11.40234375 13.62078125 11.40234375 14.94078125 11.40234375 16.30078125 C23.29071643 17.87823952 33.05803309 18.27795597 43.07519531 10.98461914 C46.36686578 8.3392876 49.58865336 5.64230439 52.7043457 2.79125977 C55.26834383 0.54061871 56.32824215 0.30617046 59.83984375 0.05078125 C63.40234375 0.30078125 63.40234375 0.30078125 65.33984375 1.36328125 C67.15488475 4.6730619 67.08333594 6.58627839 66.40234375 10.30078125 C64.156548 13.16703709 61.32961411 15.16408756 58.40234375 17.30078125 C57.8717334 17.69201172 57.34112305 18.08324219 56.79443359 18.48632812 C52.70883957 21.49006703 48.57097547 24.41367235 44.40234375 27.30078125 C43.479375 27.94015625 42.55640625 28.57953125 41.60546875 29.23828125 C36.12604838 32.96285457 32.68712449 34.42562026 25.92724609 34.43017578 C24.94876457 34.43280426 24.94876457 34.43280426 23.95051575 34.43548584 C21.79641045 34.43988394 19.64238736 34.43697424 17.48828125 34.43359375 C15.99280786 34.43426721 14.49733458 34.43523759 13.00186157 34.43649292 C9.86972002 34.43796699 6.73760699 34.43582406 3.60546875 34.43115234 C-0.41764906 34.42544536 -4.4407003 34.42874201 -8.46381569 34.43472481 C-11.55034898 34.43832987 -14.63686636 34.43719226 -17.72340012 34.43459702 C-19.20743187 34.4339281 -20.69146506 34.43475493 -22.17549515 34.43707657 C-24.24415191 34.43960326 -26.3126991 34.43576277 -28.38134766 34.43017578 C-29.56032623 34.42938019 -30.73930481 34.42858459 -31.95401001 34.42776489 C-34.59765625 34.30078125 -34.59765625 34.30078125 -35.59765625 33.30078125 C-35.69665148 31.75122566 -35.72845149 30.19724452 -35.73046875 28.64453125 C-35.73175781 27.70480469 -35.73304687 26.76507813 -35.734375 25.796875 C-35.73050781 24.80816406 -35.72664063 23.81945312 -35.72265625 22.80078125 C-35.72652344 21.81207031 -35.73039062 20.82335937 -35.734375 19.8046875 C-35.73308594 18.86496094 -35.73179688 17.92523438 -35.73046875 16.95703125 C-35.72934082 16.08884766 -35.72821289 15.22066406 -35.72705078 14.32617188 C-35.59765625 12.30078125 -35.59765625 12.30078125 -34.59765625 11.30078125 C-32.78523573 11.27390846 -30.97270392 11.2544441 -29.16015625 11.23828125 C-22.70790843 10.7922379 -19.4370552 8.51162929 -14.75390625 4.2109375 C-10.1180512 0.1041746 -6.04697107 -0.0068792 0 0 Z " fill="#58B15B" transform="translate(37.59765625,62.69921875)"/>
<path d="M0 0 C3 0.125 3 0.125 4 1.125 C4.04063832 2.79117115 4.042721 4.45888095 4 6.125 C5.98 6.785 7.96 7.445 10 8.125 C10 10.105 10 12.085 10 14.125 C5.02936879 15.03797308 0.97063121 15.03797308 -4 14.125 C-4 15.115 -4 16.105 -4 17.125 C-2.89591797 17.36283203 -2.89591797 17.36283203 -1.76953125 17.60546875 C8.8620025 20.14748673 8.8620025 20.14748673 12 25.125 C12.74035228 28.30620122 12.83080425 30.95648449 12 34.125 C10.18871351 36.50885122 8.61127711 37.50600819 6 39.125 C5.34 39.125 4.68 39.125 4 39.125 C3.67 40.775 3.34 42.425 3 44.125 C0.625 44.75 0.625 44.75 -2 45.125 C-4 43.125 -4 43.125 -4.125 40.5 C-4.063125 39.324375 -4.063125 39.324375 -4 38.125 C-5.670625 37.939375 -5.670625 37.939375 -7.375 37.75 C-11 37.125 -11 37.125 -13 35.125 C-12.44444444 30.56944444 -12.44444444 30.56944444 -11 29.125 C-8.64305046 29.21531574 -6.28846418 29.37188128 -3.9375 29.5625 C-2.64714844 29.66433594 -1.35679688 29.76617187 -0.02734375 29.87109375 C1.47119141 29.99677734 1.47119141 29.99677734 3 30.125 C3.33 29.465 3.66 28.805 4 28.125 C3.41992188 28.02703125 2.83984375 27.9290625 2.2421875 27.828125 C-2.99321469 26.82596881 -6.75861871 25.53879469 -11 22.125 C-13.4915904 18.3876144 -13.45793285 16.55168417 -13 12.125 C-11.0467078 8.79716884 -9.97501049 7.41307128 -6.25 6.3125 C-5.5075 6.250625 -4.765 6.18875 -4 6.125 C-4.020625 5.320625 -4.04125 4.51625 -4.0625 3.6875 C-3.97206764 -0.02022692 -3.7522321 0.156343 0 0 Z " fill="#5AB15D" transform="translate(53,5.875)"/>
</svg>
