<?xml version="1.0" encoding="UTF-8"?>
<svg version="1.1" xmlns="http://www.w3.org/2000/svg" width="31" height="35">
<path d="M0 0 C10.23 0 20.46 0 31 0 C31 11.55 31 23.1 31 35 C20.77 35 10.54 35 0 35 C0 23.45 0 11.9 0 0 Z " fill="#59B15C" transform="translate(0,0)"/>
<path d="M0 0 C10.23 0 20.46 0 31 0 C31 11.55 31 23.1 31 35 C20.77 35 10.54 35 0 35 C0 23.45 0 11.9 0 0 Z M3 11 C1.15544239 14.68911523 1.64937035 18.96457145 2 23 C3.71249871 27.1460495 6.10967484 29.76513235 10 32 C14.65000889 32.68945766 18.62405958 32.61478189 22.9375 30.6875 C26.6996031 27.60941565 28.6141391 25.79382832 29.30859375 20.765625 C29.55939061 15.8712862 29.40811261 12.78788587 26.1875 8.9375 C22.93735428 5.52685326 19.87870554 4.79968522 15.25 4.5625 C9.58236947 4.58739442 6.59227714 6.75957499 3 11 Z " fill="#F9FCF9" transform="translate(0,0)"/>
<path d="M0 0 C0.99 0 1.98 0 3 0 C3 1.32 3 2.64 3 4 C4.32 4 5.64 4 7 4 C7 4.99 7 5.98 7 7 C5.68 7 4.36 7 3 7 C3 8.32 3 9.64 3 11 C2.01 11 1.02 11 0 11 C0 9.68 0 8.36 0 7 C-1.65 6.67 -3.3 6.34 -5 6 C-4.67 5.34 -4.34 4.68 -4 4 C-2.68 4 -1.36 4 0 4 C0 2.68 0 1.36 0 0 Z " fill="#EAF5EA" transform="translate(14,13)"/>
</svg>
